<svg width="32" height="32" viewBox="0 0 32 32" fill="none" xmlns="http://www.w3.org/2000/svg">
<path d="M26.335 0H5.66505C2.53633 0 0 2.63027 0 5.87486V26.1251C0 29.3697 2.53633 32 5.66505 32H26.335C29.4637 32 32 29.3697 32 26.1251V5.87486C32 2.63027 29.4637 0 26.335 0Z" fill="white"/>
<path d="M24.8103 24.2964H21.0835C20.9216 24.2995 20.7624 24.2522 20.6263 24.1606C20.4902 24.0691 20.3833 23.9373 20.3191 23.7821L16.2733 13.9093C16.2627 13.8708 16.2406 13.837 16.2101 13.8127C16.1797 13.7884 16.1425 13.775 16.1042 13.7745C16.0659 13.774 16.0284 13.7864 15.9974 13.8098C15.9664 13.8332 15.9434 13.8665 15.9319 13.9046L13.4105 20.1731C13.3968 20.207 13.3914 20.2439 13.3947 20.2806C13.398 20.3172 13.4099 20.3524 13.4294 20.3831C13.4489 20.4137 13.4753 20.4389 13.5064 20.4563C13.5375 20.4737 13.5722 20.4828 13.6074 20.4828H16.3789C16.4629 20.4828 16.545 20.5086 16.615 20.5569C16.685 20.6053 16.7398 20.6742 16.7725 20.7548L17.9859 23.573C18.0181 23.6521 18.031 23.7382 18.0234 23.8238C18.0159 23.9093 17.9882 23.9916 17.9428 24.0632C17.8974 24.1349 17.8357 24.1936 17.7632 24.2343C17.6907 24.275 17.6097 24.2963 17.5273 24.2964H7.43771C7.36183 24.2959 7.28723 24.2758 7.22057 24.238C7.15391 24.2001 7.09727 24.1456 7.05568 24.0794C7.01409 24.0131 6.98886 23.9372 6.98223 23.8583C6.9756 23.7794 6.98777 23.7 7.01767 23.6272L13.4354 7.67679C13.501 7.50797 13.6139 7.36372 13.7592 7.26286C13.9046 7.162 14.0757 7.10922 14.2502 7.11141H17.9518C18.1264 7.10899 18.2976 7.16168 18.443 7.26257C18.5885 7.36346 18.7013 7.50784 18.7667 7.67679L25.2289 23.6272C25.2588 23.6999 25.271 23.7791 25.2645 23.8579C25.2579 23.9367 25.2328 24.0126 25.1914 24.0788C25.15 24.1451 25.0935 24.1996 25.027 24.2375C24.9605 24.2755 24.8861 24.2957 24.8103 24.2964Z" fill="#EB1000"/>
</svg>
