<svg width="20" height="20" viewBox="0 0 20 20" fill="none" xmlns="http://www.w3.org/2000/svg">
<path d="M13.25 18H5.75C3.68213 18 2 16.3174 2 14.25V6.75C2 4.68262 3.68213 3 5.75 3H8C8.41406 3 8.75 3.33594 8.75 3.75C8.75 4.16406 8.41406 4.5 8 4.5H5.75C4.50928 4.5 3.5 5.50977 3.5 6.75V14.25C3.5 15.4902 4.50928 16.5 5.75 16.5H13.25C14.4907 16.5 15.5 15.4902 15.5 14.25V10.498C15.5 10.084 15.8359 9.74805 16.25 9.74805C16.6641 9.74805 17 10.084 17 10.498V14.25C17 16.3174 15.3179 18 13.25 18Z" fill="#292929"/>
<path d="M12.9399 9.58311C12.7456 9.58311 12.5498 9.53233 12.372 9.42979C11.9438 9.18272 11.726 8.69249 11.8305 8.20909L12.3432 5.83409L10.7119 4.03429C10.3798 3.66808 10.3227 3.1339 10.5703 2.70519C10.8183 2.27746 11.3076 2.05968 11.7924 2.16417L14.1665 2.67784L15.9658 1.046C16.3325 0.712987 16.8672 0.656347 17.2954 0.904397C17.7236 1.15147 17.9409 1.64268 17.8359 2.12608L17.3232 4.5001L18.9546 6.2999C19.2866 6.66611 19.3442 7.19931 19.0966 7.62802C18.8496 8.05771 18.3613 8.27548 17.8745 8.17001L15.5005 7.65634L13.7011 9.28818C13.4863 9.48252 13.2143 9.58311 12.9399 9.58311ZM13.8491 5.9669L13.5371 7.41221L14.6323 6.41905C14.9042 6.17296 15.2768 6.07042 15.6347 6.15147L17.0776 6.46299L16.0854 5.36826C15.8408 5.09775 15.7407 4.72471 15.8168 4.36826L16.1293 2.92295L15.0346 3.91514C14.7631 4.16026 14.392 4.26377 14.0317 4.18272L12.5888 3.8712L13.581 4.96593C13.8261 5.23546 13.9267 5.61045 13.8491 5.9669Z" fill="#292929"/>
<path d="M8.1201 13.2498C7.99119 13.2498 7.8618 13.2166 7.7451 13.1492C7.46287 12.9861 7.31834 12.6599 7.38719 12.3416L7.58983 11.4021L6.94432 10.6902C6.72557 10.448 6.68748 10.0935 6.85057 9.81132C7.01366 9.52909 7.34276 9.38944 7.65868 9.45292L8.59764 9.65702L9.30955 9.01151C9.55125 8.79178 9.90672 8.75467 10.1885 8.91776C10.4707 9.08085 10.6152 9.40702 10.5464 9.72538L10.3437 10.6648L10.9892 11.3767C11.208 11.6189 11.2461 11.9734 11.083 12.2556C10.9199 12.5379 10.5918 12.6765 10.2749 12.614L9.33543 12.4099L8.624 13.0555C8.4824 13.1834 8.30174 13.2498 8.1201 13.2498Z" fill="#292929"/>
</svg>
