<?xml version="1.0" encoding="UTF-8"?>
<svg id="b" data-name="ICONS" xmlns="http://www.w3.org/2000/svg" width="20" height="20" viewBox="0 0 20 20">
  <path d="M17.75,14.25c-.11597,0-.22754.01733-.33887.0343l-1.77661-2.99805c.37891-.40295.61548-.94128.61548-1.53625,0-1.24023-1.00977-2.25-2.25-2.25-.19507,0-.38123.03284-.56189.07983l-1.71729-2.89807c.32532-.39026.52917-.88538.52917-1.43176,0-1.24023-1.00977-2.25-2.25-2.25s-2.25,1.00977-2.25,2.25c0,.54639.20386,1.0415.52917,1.43176l-1.71729,2.89807c-.18066-.047-.36682-.07983-.56189-.07983-1.24023,0-2.25,1.00977-2.25,2.25,0,.59497.23657,1.1333.61548,1.53625l-1.9165,3.23389c-.06665-.00598-.13086-.02014-.19897-.02014-1.24023,0-2.25,1.00977-2.25,2.25s1.00977,2.25,2.25,2.25c.97607,0,1.8009-.62915,2.11169-1.5h3.52673c.31079.87085,1.1355,1.5,2.11157,1.5s1.8009-.62915,2.11169-1.5h3.63354c.36975.73755,1.12537,1.25,2.00476,1.25,1.24023,0,2.25-1.00977,2.25-2.25s-1.00977-2.25-2.25-2.25ZM2.25,17.5c-.41309,0-.75-.33691-.75-.75s.33691-.75.75-.75.75.33691.75.75-.33691.75-.75.75ZM14,9c.41309,0,.75.33691.75.75s-.33691.75-.75.75-.75-.33691-.75-.75.33691-.75.75-.75ZM10,2.5c.41309,0,.75.33691.75.75s-.33691.75-.75.75-.75-.33691-.75-.75.33691-.75.75-.75ZM9.56445,5.45581c.14111.02783.28638.04419.43555.04419s.29443-.01636.43555-.04419l1.75781,2.96643c-.12927.17517-.23047.36914-.30493.57776h-3.77673c-.07446-.20862-.17578-.40259-.30505-.57776l1.75781-2.96643ZM6,9c.41309,0,.75.33691.75.75s-.33691.75-.75.75-.75-.33691-.75-.75.33691-.75.75-.75ZM7.88843,16h-3.52673c-.11584-.32471-.29749-.61768-.53894-.85449l1.88159-3.17542c.09766.01306.19434.02991.29565.02991.12683,0,.24927-.01721.37036-.03748l1.92554,3.33545c-.17603.20618-.3147.44177-.40747.70203ZM10,17.5c-.41309,0-.75-.33691-.75-.75s.33691-.75.75-.75.75.33691.75.75-.33691.75-.75.75ZM10.40906,14.5415c-.13306-.02466-.26892-.0415-.40906-.0415s-.276.01685-.40906.0415l-1.91101-3.3103c.18774-.21265.33447-.45886.43176-.7312h3.77673c.09717.27234.2439.51855.43164.7312l-1.91101,3.3103ZM15.56055,16h-3.44885c-.0929-.26025-.23157-.49585-.40759-.70203l1.92554-3.33545c.12109.02026.24353.03748.37036.03748.10132,0,.198-.01685.29565-.02991l1.79309,3.026c-.25439.28076-.44092.62231-.5282,1.00391ZM17.75,17.25c-.41309,0-.75-.33691-.75-.75s.33691-.75.75-.75.75.33691.75.75-.33691.75-.75.75Z" fill="var(--iconPrimary, #222)"/>
</svg>