<svg width="20" height="20" viewBox="0 0 20 20" fill="none" xmlns="http://www.w3.org/2000/svg">
<path d="M7.5 18H6.75C4.13086 18 2 15.8691 2 13.25V6.75C2 4.13086 4.13086 2 6.75 2H13.25C15.8691 2 18 4.13086 18 6.75V7.5C18 7.91406 17.6641 8.25 17.25 8.25C16.8359 8.25 16.5 7.91406 16.5 7.5V6.75C16.5 4.95801 15.042 3.5 13.25 3.5H6.75C4.95801 3.5 3.5 4.95801 3.5 6.75V13.25C3.5 15.042 4.95801 16.5 6.75 16.5H7.5C7.91406 16.5 8.25 16.8359 8.25 17.25C8.25 17.6641 7.91406 18 7.5 18Z" fill="#292929"/>
<path d="M13.9514 15.7884C14.6416 15.7884 15.2012 15.2288 15.2012 14.5386C15.2012 13.8484 14.6416 13.2888 13.9514 13.2888C13.2611 13.2888 12.7016 13.8484 12.7016 14.5386C12.7016 15.2288 13.2611 15.7884 13.9514 15.7884Z" fill="#292929"/>
<path d="M12.1592 19.6611C11.9287 19.6611 11.6953 19.6035 11.4834 19.4824L10.9902 19.2012C10.3731 18.8496 10.126 18.0693 10.4258 17.4258L10.7266 16.7793C10.6055 16.6055 10.4981 16.4229 10.4063 16.2315L9.69436 16.1758C8.98733 16.1211 8.43069 15.5215 8.42678 14.8115L8.42385 14.2442C8.41994 13.5225 8.95901 12.9307 9.67776 12.8672L10.3877 12.8047C10.4326 12.709 10.4805 12.6153 10.5332 12.5225C10.585 12.4317 10.6426 12.3408 10.7032 12.253L10.3955 11.6094C10.0889 10.9698 10.3291 10.1875 10.9434 9.82914L11.4336 9.54203C12.0459 9.18558 12.8457 9.36039 13.252 9.94047L13.6631 10.5254C13.875 10.5069 14.0879 10.5059 14.2969 10.5225L14.7012 9.93363C15.1026 9.34965 15.8985 9.16508 16.5166 9.51761L17.0098 9.79886C17.627 10.1504 17.874 10.9307 17.5742 11.5742L17.2734 12.2207C17.3945 12.3946 17.502 12.5772 17.5938 12.7686L18.3057 12.8242C19.0127 12.8789 19.5693 13.4785 19.5732 14.1885L19.5762 14.7559C19.5801 15.4776 19.041 16.0694 18.3223 16.1328L17.6123 16.1953C17.5674 16.291 17.5195 16.3848 17.4668 16.4776C17.4668 16.4776 17.4668 16.4785 17.4658 16.4785C17.4141 16.5694 17.3574 16.6592 17.2969 16.7471L17.6045 17.3906C17.9111 18.0303 17.6709 18.8125 17.0566 19.1709L16.5664 19.458C15.957 19.8154 15.1553 19.6397 14.748 19.0596L14.3369 18.4746C14.125 18.4932 13.9131 18.4941 13.7031 18.4775L13.2988 19.0664C13.0352 19.4502 12.6006 19.6611 12.1592 19.6611ZM12.126 10.6055C12.1045 10.6055 12.083 10.6104 12.0645 10.6221L11.5733 10.9092C11.5176 10.9414 11.4961 11.0117 11.5235 11.0694L11.9961 12.0586C12.1016 12.2813 12.0674 12.545 11.9082 12.7325C11.8018 12.8584 11.7041 12.9942 11.6182 13.1426C11.5342 13.2901 11.4678 13.4444 11.4131 13.6016C11.3311 13.8321 11.1221 13.9942 10.8789 14.0156L9.78811 14.1123C9.72268 14.1182 9.67385 14.1729 9.67385 14.2383L9.67678 14.8057C9.67678 14.8711 9.72658 14.9248 9.79201 14.9297L10.8838 15.0156C11.1289 15.0352 11.3399 15.1963 11.4229 15.4278C11.5361 15.7432 11.7061 16.0322 11.9268 16.2891C12.0879 16.4746 12.124 16.7383 12.0205 16.961L11.5586 17.9541C11.5313 18.0127 11.5537 18.084 11.6094 18.1153L12.1026 18.3965C12.1602 18.4287 12.2324 18.4102 12.2676 18.3594L12.8877 17.4561C13.0274 17.253 13.2735 17.1504 13.5147 17.1944C13.8457 17.2539 14.1826 17.2539 14.5117 17.1904C14.752 17.1445 15.001 17.2442 15.1416 17.4444L15.7705 18.3408C15.8076 18.3945 15.8809 18.4111 15.9356 18.3779L16.4268 18.0908C16.4824 18.0586 16.5039 17.9883 16.4766 17.9307L16.0039 16.9414C15.8984 16.7188 15.9326 16.4551 16.0918 16.2676C16.1983 16.1416 16.2959 16.0059 16.3818 15.8574C16.4658 15.709 16.5322 15.5547 16.5869 15.3984C16.669 15.168 16.8779 15.0059 17.1211 14.9844L18.2119 14.8877C18.2774 14.8818 18.3262 14.8272 18.3262 14.7617L18.3233 14.1943C18.3233 14.1289 18.2735 14.0752 18.208 14.0703L17.1162 13.9844C16.8711 13.9649 16.6602 13.8037 16.5772 13.5723C16.4639 13.2568 16.294 12.9678 16.0733 12.7109C15.9121 12.5254 15.876 12.2617 15.9795 12.0391L16.4414 11.0459C16.4688 10.9873 16.4463 10.916 16.3906 10.8848L15.8975 10.6035C15.8389 10.5713 15.7666 10.5889 15.7324 10.6406L15.1123 11.544C14.9727 11.7471 14.7266 11.8496 14.4854 11.8057C14.1553 11.7451 13.8184 11.7471 13.4883 11.8096C13.25 11.8594 13 11.7569 12.8584 11.5557L12.2295 10.6592C12.2051 10.624 12.166 10.6055 12.126 10.6055Z" fill="#292929"/>
</svg>
