<?xml version="1.0" encoding="UTF-8"?>
<svg width="20" height="20" viewBox="0 0 20 20" fill="none" xmlns="http://www.w3.org/2000/svg">
<mask id="mask0_4658_73253" style="mask-type:alpha" maskUnits="userSpaceOnUse" x="0" y="0" width="20" height="20">
<path fill-rule="evenodd" clip-rule="evenodd" d="M11.2606 15.9004C9.96131 15.8979 8.7025 15.448 7.696 14.6263C6.6895 13.8046 5.99674 12.6612 5.73427 11.3887L5.71863 11.3086H0.867082C0.844226 11.3087 0.821758 11.3027 0.802009 11.2912C0.78226 11.2797 0.76595 11.2631 0.754772 11.2432C0.743182 11.2239 0.737061 11.2018 0.737061 11.1792C0.737061 11.1567 0.743182 11.1346 0.754772 11.1153L5.86805 2.16504C5.87951 2.14542 5.89591 2.12915 5.91561 2.11784C5.93532 2.10654 5.95764 2.10059 5.98036 2.10059C6.00307 2.10059 6.0254 2.10654 6.0451 2.11784C6.0648 2.12915 6.0812 2.14542 6.09266 2.16504L8.06337 5.6143L8.15321 5.55473C8.887 5.0702 9.72393 4.76397 10.5971 4.6605C11.4704 4.55704 12.3557 4.6592 13.1824 4.95882C14.0091 5.25845 14.7543 5.74725 15.3584 6.38617C15.9626 7.02509 16.409 7.79643 16.6619 8.63859C16.9149 9.48075 16.9674 10.3704 16.8153 11.2365C16.6631 12.1025 16.3106 12.921 15.7858 13.6266C15.261 14.3322 14.5785 14.9052 13.7928 15.3C13.0071 15.6948 12.14 15.9004 11.2606 15.9004ZM6.71763 11.4336C6.96691 12.3991 7.51737 13.26 8.28913 13.8914C9.06089 14.5229 10.0138 14.8919 11.0095 14.945C12.0052 14.9981 12.992 14.7325 13.8265 14.1868C14.6611 13.6411 15.3 12.8436 15.6506 11.9101C16.0011 10.9766 16.0451 9.95568 15.7761 8.99551C15.507 8.03534 14.939 7.18589 14.1545 6.57044C13.3699 5.95499 12.4097 5.60556 11.4131 5.57288C10.4165 5.54021 9.43537 5.82597 8.61219 6.38871L8.53602 6.44047L11.2069 11.1153C11.2185 11.1346 11.2246 11.1567 11.2246 11.1792C11.2246 11.2018 11.2185 11.2239 11.2069 11.2432C11.1957 11.2631 11.1794 11.2797 11.1597 11.2912C11.1399 11.3027 11.1175 11.3087 11.0946 11.3086H6.68544L6.71763 11.4336Z" fill="var(--iconPrimary, #222)"/>
</mask>
<g mask="url(#mask0_4658_73253)">
<rect width="20" height="20" fill="var(--iconPrimary, #222)"/>
</g>
</svg>
