<svg width="20" height="20" viewBox="0 0 20 20" fill="none" xmlns="http://www.w3.org/2000/svg">
<path d="M8.25 15H6.75C5.78516 15 5 14.2148 5 13.25V11.75C5 10.7852 5.78516 10 6.75 10H8.25C9.21484 10 10 10.7852 10 11.75V13.25C10 14.2148 9.21484 15 8.25 15ZM6.75 11.5C6.6123 11.5 6.5 11.6123 6.5 11.75V13.25C6.5 13.3877 6.6123 13.5 6.75 13.5H8.25C8.3877 13.5 8.5 13.3877 8.5 13.25V11.75C8.5 11.6123 8.3877 11.5 8.25 11.5H6.75Z" fill="#292929"/>
<path d="M15.75 3H13.75V2C13.75 1.58594 13.4141 1.25 13 1.25C12.5859 1.25 12.25 1.58594 12.25 2V3H7.75V2C7.75 1.58594 7.41406 1.25 7 1.25C6.58594 1.25 6.25 1.58594 6.25 2V3H4.25C3.00977 3 2 4.00977 2 5.25V15.75C2 16.9902 3.00977 18 4.25 18H15.75C16.9902 18 18 16.9902 18 15.75V5.25C18 4.00977 16.9902 3 15.75 3ZM4.25 4.5H6.25V5C6.25 5.41406 6.58594 5.75 7 5.75C7.41406 5.75 7.75 5.41406 7.75 5V4.5H12.25V5C12.25 5.41406 12.5859 5.75 13 5.75C13.4141 5.75 13.75 5.41406 13.75 5V4.5H15.75C16.1631 4.5 16.5 4.83691 16.5 5.25V7H3.5V5.25C3.5 4.83691 3.83691 4.5 4.25 4.5ZM15.75 16.5H4.25C3.83691 16.5 3.5 16.1631 3.5 15.75V8.5H16.5V15.75C16.5 16.1631 16.1631 16.5 15.75 16.5Z" fill="#292929"/>
</svg>
