<?xml version="1.0" encoding="UTF-8"?>
<svg id="a" data-name="ICONS" xmlns="http://www.w3.org/2000/svg" width="20" height="20" viewBox="0 0 20 20">
  <path d="M8.00049,18.46582c-.06201,0-.12549-.00781-.18848-.02344-3.06689-.79395-5.46484-3.19043-6.25781-6.25488-.104-.40039.13721-.80957.53809-.91406.40137-.09961.81055.1377.91406.53906.65674,2.53613,2.64209,4.52051,5.18164,5.17676.40088.10449.64209.51367.53809.91406-.0874.33789-.39209.5625-.72559.5625Z" fill="var(--iconPrimary, #222)"/>
  <path d="M12.02979,18.46582c-.3335,0-.63818-.22461-.72559-.5625-.104-.40039.13721-.80957.53809-.91406,2.53955-.65625,4.5249-2.64062,5.18164-5.17676.10352-.40137.51465-.63867.91406-.53906.40088.10449.64209.51367.53809.91406-.79297,3.06445-3.19092,5.46094-6.25781,6.25488-.06299.01562-.12646.02344-.18848.02344Z" fill="var(--iconPrimary, #222)"/>
  <path d="M2.28076,8.71582c-.06201,0-.12549-.00781-.18848-.02344-.40088-.10449-.64209-.51367-.53809-.91406.79297-3.06445,3.19043-5.46094,6.25781-6.25488.40234-.09766.81055.13867.91406.53906.104.40039-.13721.80957-.53809.91406-2.54004.65625-4.52539,2.64062-5.18164,5.17676-.0874.33789-.39209.5625-.72559.5625Z" fill="var(--iconPrimary, #222)"/>
  <path d="M17.74951,8.71582c-.3335,0-.63818-.22363-.72559-.5625-.65625-2.53613-2.6416-4.52051-5.18164-5.17676-.40088-.10449-.64209-.51367-.53809-.91406s.51318-.63672.91406-.53906c3.06738.79395,5.46484,3.19043,6.25781,6.25488.104.40039-.13721.80957-.53809.91406-.06299.01562-.12646.02344-.18848.02344Z" fill="var(--iconPrimary, #222)"/>
  <path d="M10.03027,13.21582c-1.79199,0-3.25-1.45801-3.25-3.25s1.45801-3.25,3.25-3.25,3.25,1.45801,3.25,3.25-1.45801,3.25-3.25,3.25ZM10.03027,8.21582c-.96484,0-1.75.78516-1.75,1.75s.78516,1.75,1.75,1.75,1.75-.78516,1.75-1.75-.78516-1.75-1.75-1.75Z" fill="var(--iconPrimary, #222)"/>
</svg>