<svg width="20" height="20" viewBox="0 0 20 20" fill="none" xmlns="http://www.w3.org/2000/svg">
<path d="M11.75 16.5H4.25C3.85596 16.5 3.53979 16.1904 3.51086 15.8037L6.59863 12.7178C6.87988 12.4346 7.375 12.4346 7.6582 12.7178L8.73242 13.792C9.02539 14.085 9.5 14.085 9.79297 13.792C10.0859 13.499 10.0859 13.0244 9.79297 12.7314L8.71875 11.6572C7.86914 10.8066 6.38477 10.8086 5.53711 11.6572L3.5 13.6936V9.5H11.75C12.1641 9.5 12.5 9.16406 12.5 8.75C12.5 8.33594 12.1641 8 11.75 8H3.5V4.25C3.5 3.83691 3.83691 3.5 4.25 3.5H15.75C16.1631 3.5 16.5 3.83691 16.5 4.25V5.53906C16.5 5.95312 16.8359 6.28906 17.25 6.28906C17.6641 6.28906 18 5.95312 18 5.53906V4.25C18 3.00977 16.9902 2 15.75 2H4.25C3.00977 2 2 3.00977 2 4.25V15.75C2 16.9902 3.00977 18 4.25 18H11.75C12.1641 18 12.5 17.6641 12.5 17.25C12.5 16.8359 12.1641 16.5 11.75 16.5Z" fill="#292929"/>
<path d="M5.75 5C5.33594 5 5 5.33594 5 5.75C5 6.16406 5.33594 6.5 5.75 6.5H14.25C14.6641 6.5 15 6.16406 15 5.75C15 5.33594 14.6641 5 14.25 5H5.75Z" fill="#292929"/>
<path d="M19.459 12.3983C19.2402 12.0018 18.8242 11.7548 18.3721 11.7538H16.2822L16.9541 9.08777C17.1074 8.47839 16.8106 7.88269 16.2315 7.63855C15.6514 7.39734 15.0186 7.59851 14.6895 8.13367L11.1992 13.8231C10.9649 14.205 10.9551 14.6864 11.1738 15.078C11.3926 15.4706 11.8076 15.7147 12.2588 15.7157H14.3496L13.707 18.1786C13.5488 18.785 13.8408 19.3827 14.416 19.6317C14.583 19.704 14.7549 19.7391 14.9229 19.7391C15.335 19.7391 15.7236 19.5311 15.961 19.1542L19.4209 13.66C19.6621 13.2772 19.6768 12.7938 19.459 12.3983ZM15.5781 16.9462L15.8848 15.7714C15.9824 15.3974 15.9023 15.0067 15.666 14.7001C15.4297 14.3934 15.0723 14.2167 14.6826 14.2157H12.7178L15.0889 10.3524L14.7471 11.7079C14.6533 12.0809 14.7353 12.4696 14.9717 12.7733C15.208 13.078 15.5644 13.2528 15.9521 13.2538H17.9033L15.5781 16.9462Z" fill="#292929"/>
</svg>
