<?xml version="1.0" encoding="UTF-8"?>
<svg   xmlns="http://www.w3.org/2000/svg" width="20" height="20" viewBox="0 0 20 20">
  <path d="M3.8594,9.8154c-.319,0-.607-.01-.846-.022-.413-.022-.73-.375-.709-.79.023-.413.384-.754.789-.709,1.461.077,2.765-.065,3.559-.389l.697-.266c1.168-.445,3.037-.566,4.255-.276l.564.135c1.011.241,2.348.147,2.918-.086l1.432-.587c.382-.156.821.027.979.41.156.384-.028.821-.41.978l-1.432.586c-.928.381-2.612.451-3.836.158l-.564-.135c-.917-.221-2.492-.116-3.372.219l-.68.259c-1.018.417-2.336.515-3.344.515" fill="var(--iconPrimary, #222)"/>
  <path d="M4.2148,7.4424c-.428,0-.866-.056-1.307-.168-.401-.103-.643-.511-.541-.912.103-.401.51-.641.912-.541,1.24.315,2.445-.005,3.221-.86l1.143-1.352c.966-1.142,2.718-1.333,3.909-.427l1.362,1.041c.552.42,1.394.326,1.838-.208l1.505-1.806c.266-.32.737-.363,1.057-.096.317.265.361.738.095,1.057l-1.505,1.806c-.959,1.152-2.709,1.347-3.9.44l-1.362-1.041c-.553-.421-1.402-.329-1.855.203l-1.159,1.371c-.884.975-2.101,1.493-3.413,1.493" fill="var(--iconPrimary, #222)"/>
  <path d="M7.80176,16.71484c-.19824,0-.39551-.07812-.54297-.23242l-1.11621-1.1709c-.82227-.79102-1.91504-1.04395-2.9043-.6543-.38574.15527-.82031-.03613-.97266-.42188s.03711-.82129.42188-.97266c1.5293-.60352,3.25781-.22168,4.51855.99121l1.13867,1.19336c.28613.2998.27441.77441-.02539,1.06055-.14551.13867-.33105.20703-.51758.20703Z" fill="var(--iconPrimary, #222)"/>
  <path d="M7.83398,12.85254c-.08008,0-.16211-.0127-.24219-.04004l-1.0791-.36816c-.95312-.29883-2.25586-.37207-3.38086-.1875-.40625.07324-.79395-.20996-.86133-.61914-.06738-.4082.20996-.79395.61914-.86133,1.36035-.22363,2.89062-.13281,4.08887.24219l1.09766.37402c.3916.13379.60156.56055.46777.95215-.10645.31152-.39746.50781-.70996.50781Z" fill="var(--iconPrimary, #222)"/>
  <path d="M19.97583,12.18103c-.00525-.02893-.01013-.05798-.01733-.08606-.0127-.04321-.02368-.08508-.04346-.12476-.45264-1.18384-2.76904-1.61963-4.78711-1.61963-2.01172,0-4.32056.43298-4.7832,1.60864-.02563.04944-.04053.10205-.05469.1571-.00244.01013-.00403.02039-.00623.03064-.01086.0509-.03088.09863-.03088.15283v5.49414c0,.00903.00488.0166.00513.02539.02393,1.36499,2.48706,2.18066,4.86987,2.18066,2.39453,0,4.87207-.82324,4.87207-2.2002,0-.00159-.00098-.00293-.00098-.00439s.00098-.00281.00098-.00439v-5.49023c0-.04248-.01733-.0791-.02417-.11975ZM18.5,14.8877c-.26221.26355-1.49036.81445-3.37207.81445-1.88672,0-3.11731-.55408-3.375-.81689v-.92993c.94922.349,2.21143.49487,3.375.49487,1.16235,0,2.4231-.14551,3.37207-.49365v.93115ZM15.12793,11.85059c1.63477,0,2.75098.30762,3.20605.5498-.45508.24219-1.57129.5498-3.20605.5498s-2.75098-.30762-3.20605-.5498c.45508-.24219,1.57129-.5498,3.20605-.5498ZM11.75293,17.68311v-1.08325c.92346.38916,2.15918.60229,3.375.60229,1.2146,0,2.44897-.21265,3.37207-.60107v1.08447c-.26221.26355-1.49036.81445-3.37207.81445-1.88672,0-3.11731-.55408-3.375-.81689Z" fill="var(--iconPrimary, #222)"/>
</svg>
