<?xml version="1.0" encoding="UTF-8"?>
<svg id="b" data-name="ICONS" xmlns="http://www.w3.org/2000/svg" width="20" height="20" viewBox="0 0 20 20">
  <path d="M7.75,9.5h-1.5c-.96484,0-1.75-.78516-1.75-1.75v-1.5c0-.96484.78516-1.75,1.75-1.75h1.5c.96484,0,1.75.78516,1.75,1.75v1.5c0,.96484-.78516,1.75-1.75,1.75ZM6.25,6c-.1377,0-.25.1123-.25.25v1.5c0,.1377.1123.25.25.25h1.5c.1377,0,.25-.1123.25-.25v-1.5c0-.1377-.1123-.25-.25-.25h-1.5Z" fill="var(--iconPrimary, #222)"/>
  <path d="M13.75,9.5h-1.5c-.96484,0-1.75-.78516-1.75-1.75v-1.5c0-.96484.78516-1.75,1.75-1.75h1.5c.96484,0,1.75.78516,1.75,1.75v1.5c0,.96484-.78516,1.75-1.75,1.75ZM12.25,6c-.1377,0-.25.1123-.25.25v1.5c0,.1377.1123.25.25.25h1.5c.1377,0,.25-.1123.25-.25v-1.5c0-.1377-.1123-.25-.25-.25h-1.5Z" fill="var(--iconPrimary, #222)"/>
  <path d="M7.75,15.5h-1.5c-.96484,0-1.75-.78516-1.75-1.75v-1.5c0-.96484.78516-1.75,1.75-1.75h1.5c.96484,0,1.75.78516,1.75,1.75v1.5c0,.96484-.78516,1.75-1.75,1.75ZM6.25,12c-.1377,0-.25.1123-.25.25v1.5c0,.1377.1123.25.25.25h1.5c.1377,0,.25-.1123.25-.25v-1.5c0-.1377-.1123-.25-.25-.25h-1.5Z" fill="var(--iconPrimary, #222)"/>
  <path d="M8.88135,18h-4.63135c-1.24072,0-2.25-1.00488-2.25-2.23926V4.23926c0-1.23438,1.00928-2.23926,2.25-2.23926h11.5c1.24072,0,2.25,1.00488,2.25,2.23926v4.5752c0,.41406-.33594.75-.75.75s-.75-.33594-.75-.75v-4.5752c0-.40723-.33643-.73926-.75-.73926H4.25c-.41357,0-.75.33203-.75.73926v11.52148c0,.40723.33643.73926.75.73926h4.63135c.41406,0,.75.33594.75.75s-.33594.75-.75.75Z" fill="var(--iconPrimary, #222)"/>
  <path d="M16.75,19h-3.5c-1.24072,0-2.25-1.00977-2.25-2.25v-3.5c0-1.24023,1.00928-2.25,2.25-2.25h3.5c1.24072,0,2.25,1.00977,2.25,2.25v3.5c0,1.24023-1.00928,2.25-2.25,2.25ZM13.25,12.5c-.41357,0-.75.33691-.75.75v3.5c0,.41309.33643.75.75.75h3.5c.41357,0,.75-.33691.75-.75v-3.5c0-.41309-.33643-.75-.75-.75h-3.5Z" fill="var(--iconPrimary, #222)"/>
</svg>