<svg width="20" height="20" viewBox="0 0 20 20" fill="none" xmlns="http://www.w3.org/2000/svg">
<mask id="mask0_3089_35055" style="mask-type:alpha" maskUnits="userSpaceOnUse" x="0" y="0" width="20" height="20">
<path d="M4.125 6.75C4.53921 6.75 4.875 6.41421 4.875 6C4.875 5.58579 4.53921 5.25 4.125 5.25C3.71079 5.25 3.375 5.58579 3.375 6C3.375 6.41421 3.71079 6.75 4.125 6.75Z" fill="#292929"/>
<path d="M18.571 10.0432C17.6051 9.25169 16.1178 9.35471 15.192 10.2825L11.0094 14.4651C10.7614 14.7127 10.5768 15.0208 10.4762 15.3557L9.52211 18.5153C9.44203 18.78 9.5143 19.0672 9.70961 19.2625C9.85219 19.4051 10.0436 19.4822 10.2399 19.4822C10.3122 19.4822 10.3854 19.472 10.4567 19.45L13.6149 18.4964C13.9508 18.3953 14.2594 18.2112 14.5055 17.9637C14.5055 17.9637 18.6305 13.8391 18.7584 13.7107C19.2516 13.218 19.5153 12.5354 19.4801 11.8387C19.4459 11.1419 19.1139 10.4876 18.571 10.0432ZM11.362 17.6095L11.9128 15.7884C11.9298 15.731 11.9706 15.6865 12.0031 15.6367L13.3354 16.9689C13.2853 17.0017 13.2406 17.0426 13.1823 17.0603L11.362 17.6095ZM17.6969 12.6511C17.6042 12.7444 15.4457 14.9026 14.2411 16.107L12.8647 14.731L16.2526 11.343C16.4743 11.1214 16.7653 11.0061 17.0456 11.0061C17.2555 11.0061 17.4587 11.0711 17.6217 11.2044C17.8405 11.3831 17.9684 11.635 17.9821 11.9129C17.9958 12.1912 17.8952 12.4529 17.6969 12.6511Z" fill="#292929"/>
<path fill-rule="evenodd" clip-rule="evenodd" d="M3.25 3H16.75C17.9902 3 19 4.00977 19 5.25V9H17.5H9H2.5V14.75C2.5 15.1631 2.83691 15.5 3.25 15.5H9V17H3.25C2.00977 17 1 15.9902 1 14.75V5.25C1 4.00977 2.00977 3 3.25 3ZM3.25 4.5C2.83691 4.5 2.5 4.83691 2.5 5.25V7.5H17.5V5.25C17.5 4.83691 17.1631 4.5 16.75 4.5H3.25Z" fill="#292929"/>
</mask>
<g mask="url(#mask0_3089_35055)">
<path d="M0 0H20V20H0V0Z" fill="#292929"/>
</g>
</svg>
