<?xml version="1.0" encoding="UTF-8"?>
<svg xmlns="http://www.w3.org/2000/svg" width="20" height="20" viewBox="0 0 20 20">
  <path d="M14.25,14h-2.5c-.96484,0-1.75-.78516-1.75-1.75v-1.5c0-.96484.78516-1.75,1.75-1.75h2.5c.96484,0,1.75.78516,1.75,1.75v1.5c0,.96484-.78516,1.75-1.75,1.75ZM11.75,10.5c-.1377,0-.25.1123-.25.25v1.5c0,.1377.1123.25.25.25h2.5c.1377,0,.25-.1123.25-.25v-1.5c0-.1377-.1123-.25-.25-.25h-2.5Z" fill="var(--iconPrimary, #222)"/>
  <path d="M16.75,17H3.25c-1.24072,0-2.25-1.00977-2.25-2.25V5.25c0-1.24023,1.00928-2.25,2.25-2.25h13.5c1.24072,0,2.25,1.00977,2.25,2.25v9.5c0,1.24023-1.00928,2.25-2.25,2.25ZM3.25,4.5c-.41357,0-.75.33691-.75.75v9.5c0,.41309.33643.75.75.75h13.5c.41357,0,.75-.33691.75-.75V5.25c0-.41309-.33643-.75-.75-.75H3.25Z" fill="var(--iconPrimary, #222)"/>
  <path d="M15.25,7.5H4.75c-.41406,0-.75-.33594-.75-.75s.33594-.75.75-.75h10.5c.41406,0,.75.33594.75.75s-.33594.75-.75.75Z" fill="var(--iconPrimary, #222)"/>
  <path d="M7.75,11h-3c-.41406,0-.75-.33594-.75-.75s.33594-.75.75-.75h3c.41406,0,.75.33594.75.75s-.33594.75-.75.75Z" fill="var(--iconPrimary, #222)"/>
  <path d="M7.75,13.5h-3c-.41406,0-.75-.33594-.75-.75s.33594-.75.75-.75h3c.41406,0,.75.33594.75.75s-.33594.75-.75.75Z" fill="var(--iconPrimary, #222)"/>
</svg>