<svg width="20" height="20" viewBox="0 0 20 20" fill="none" xmlns="http://www.w3.org/2000/svg">
<path d="M15.75 18H4.25C3.00977 18 2 16.9902 2 15.75V13.25C2 12.0098 3.00977 11 4.25 11H15.75C16.9902 11 18 12.0098 18 13.25V15.75C18 16.9902 16.9902 18 15.75 18ZM4.25 12.5C3.83691 12.5 3.5 12.8369 3.5 13.25V15.75C3.5 16.1631 3.83691 16.5 4.25 16.5H15.75C16.1631 16.5 16.5 16.1631 16.5 15.75V13.25C16.5 12.8369 16.1631 12.5 15.75 12.5H4.25Z" fill="#292929"/>
<path d="M17 8H3C2.58594 8 2.25 7.66406 2.25 7.25C2.25 6.83594 2.58594 6.5 3 6.5H17C17.4141 6.5 17.75 6.83594 17.75 7.25C17.75 7.66406 17.4141 8 17 8Z" fill="#292929"/>
<path d="M17 3.5H3C2.58594 3.5 2.25 3.16406 2.25 2.75C2.25 2.33594 2.58594 2 3 2H17C17.4141 2 17.75 2.33594 17.75 2.75C17.75 3.16406 17.4141 3.5 17 3.5Z" fill="#292929"/>
</svg>
