<svg width="20" height="20" viewBox="0 0 20 20" fill="none" xmlns="http://www.w3.org/2000/svg">
<path d="M9.98764 15.5268C9.75699 15.5349 9.53226 15.4529 9.36103 15.2982C9.0307 14.9331 9.0307 14.3771 9.36103 14.0121C9.53038 13.8536 9.75586 13.769 9.98767 13.777C10.224 13.7676 10.4536 13.8574 10.6207 14.0248C10.7828 14.1927 10.8698 14.4191 10.8621 14.6523C10.8744 14.8873 10.7925 15.1175 10.6344 15.2917C10.4608 15.4565 10.2265 15.5416 9.98764 15.5268Z" fill="#292929"/>
<path d="M10 18.75C5.1748 18.75 1.25 14.8252 1.25 10C1.25 5.1748 5.1748 1.25 10 1.25C14.8252 1.25 18.75 5.1748 18.75 10C18.75 14.8252 14.8252 18.75 10 18.75ZM10 2.75C6.00195 2.75 2.75 6.00195 2.75 10C2.75 13.998 6.00195 17.25 10 17.25C13.998 17.25 17.25 13.998 17.25 10C17.25 6.00195 13.998 2.75 10 2.75Z" fill="#292929"/>
<path d="M9.99191 12.7061C9.57785 12.7061 9.24191 12.3701 9.24191 11.9561C9.24191 10.9336 9.31222 10.2422 10.281 9.27344C11.0661 8.48731 11.1989 8.17188 11.1989 7.62207C11.1989 7.41211 11.1325 6.36426 9.82492 6.36426C8.45969 6.36426 8.31418 7.52051 8.29855 7.75196C8.27218 8.16505 7.90597 8.47266 7.50167 8.45118C7.08761 8.42384 6.77511 8.06739 6.80245 7.6543C6.86593 6.68946 7.57882 4.86426 9.82491 4.86426C11.7116 4.86426 12.6989 6.25196 12.6989 7.62207C12.6989 8.76562 12.2419 9.43262 11.3415 10.334C10.7653 10.9101 10.7419 11.1455 10.7419 11.956C10.7419 12.3701 10.406 12.7061 9.99191 12.7061Z" fill="#292929"/>
</svg>
