<?xml version="1.0" encoding="UTF-8"?>
<svg id="b" data-name="ICONS" xmlns="http://www.w3.org/2000/svg" width="20" height="20" viewBox="0 0 20 20">
  <path d="M16,13.75c-1.11597,0-2.05176.73914-2.37244,1.75h-2.37756c-.41309,0-.75-.33691-.75-.75V5.25c0-.41309.33691-.75.75-.75h2.37756c.32068,1.01086,1.25647,1.75,2.37244,1.75,1.37891,0,2.5-1.12109,2.5-2.5s-1.12109-2.5-2.5-2.5c-1.11597,0-2.05176.73914-2.37244,1.75h-2.37756c-1.24023,0-2.25,1.00977-2.25,2.25v4h-2.62756c-.32068-1.01086-1.25647-1.75-2.37244-1.75-1.37891,0-2.5,1.12109-2.5,2.5s1.12109,2.5,2.5,2.5c1.11597,0,2.05176-.73914,2.37244-1.75h2.62756v4c0,1.24023,1.00977,2.25,2.25,2.25h2.37756c.32068,1.01086,1.25647,1.75,2.37244,1.75,1.37891,0,2.5-1.12109,2.5-2.5s-1.12109-2.5-2.5-2.5ZM16,2.75c.55176,0,1,.44824,1,1s-.44824,1-1,1-1-.44824-1-1,.44824-1,1-1ZM4,11c-.55176,0-1-.44824-1-1s.44824-1,1-1,1,.44824,1,1-.44824,1-1,1ZM16,17.25c-.55176,0-1-.44824-1-1s.44824-1,1-1,1,.44824,1,1-.44824,1-1,1Z" fill="var(--iconPrimary, #222)"/>
</svg>