<svg width="20" height="20" viewBox="0 0 20 20" fill="none" xmlns="http://www.w3.org/2000/svg">
<path d="M10.25 10.5H6C5.58594 10.5 5.25 10.1641 5.25 9.75C5.25 9.33594 5.58594 9 6 9H10.25C10.6641 9 11 9.33594 11 9.75C11 10.1641 10.6641 10.5 10.25 10.5Z" fill="#292929"/>
<path d="M14 7.5H6C5.58594 7.5 5.25 7.16406 5.25 6.75C5.25 6.33594 5.58594 6 6 6H14C14.4141 6 14.75 6.33594 14.75 6.75C14.75 7.16406 14.4141 7.5 14 7.5Z" fill="#292929"/>
<path d="M15.75 2H4.25C3.00928 2 2 3.00977 2 4.25V15.75C2 16.9902 3.00928 18 4.25 18H12.1289C12.7212 18 13.3008 17.7598 13.7197 17.3408L17.3408 13.7197C17.7598 13.3008 18 12.7207 18 12.1289V4.25C18 3.00977 16.9907 2 15.75 2ZM3.5 15.75V4.25C3.5 3.83691 3.83643 3.5 4.25 3.5H15.75C16.1636 3.5 16.5 3.83691 16.5 4.25V11H13.25C12.0093 11 11 12.0098 11 13.25V16.5H4.25C3.83643 16.5 3.5 16.1631 3.5 15.75ZM12.6592 16.2803C12.6135 16.3259 12.5554 16.3541 12.5 16.3862V13.25C12.5 12.8369 12.8364 12.5 13.25 12.5H16.3863C16.3541 12.5554 16.3259 12.6135 16.2803 12.6592L12.6592 16.2803Z" fill="#292929"/>
</svg>
