<?xml version="1.0" encoding="UTF-8"?>
<svg id="f" data-name="ICONS" xmlns="http://www.w3.org/2000/svg" width="20" height="20" viewBox="0 0 20 20">
  <path d="M17.03418,8.0127h-.00293c-.84766.00195-1.30176.46777-2.64844,1.84961-.08301.08496-.16992.17383-.26074.2666v-5.38672c0-1.69531-1.07812-2.46777-2.0791-2.46777-.2146,0-.41748.04199-.61255.10266-.15576-.99353-1.01001-1.75891-2.04663-1.75891-1.03638,0-1.89062.76514-2.04663,1.75854-.19458-.0603-.39722-.10229-.61157-.10229-1.14648,0-2.08008.93262-2.08008,2.0791v1.61279c-.18506-.0542-.37671-.09229-.5791-.09229-1.14648,0-2.0791.93262-2.0791,2.0791v3.79102c0,1.20898.21094,2.28125.62695,3.1875,1.29492,2.82422,3.96484,4.08887,6.0293,4.08887l1.05762.00977c2.9082-.03516,4.87402-2.51953,6.30859-4.33398.21191-.26758.41406-.52344.61035-.75977,1.7627-2.13086,2.37305-2.92188,2.37012-3.98633-.00293-1.08691-.86133-1.9375-1.95605-1.9375ZM15.46484,12.97949c-.20312.24414-.41309.50977-.63086.78613-1.31836,1.66504-2.95801,3.73828-5.13477,3.76465l-1.04883-.00977c-1.54102,0-3.66016-1.00586-4.67285-3.21387-.3252-.70898-.49023-1.57129-.49023-2.5625v-3.79102c0-.31934.25977-.5791.5791-.5791s.5791.25977.5791.5791v1.66602c0,.41406.33594.75.75.75s.75-.33594.75-.75v-5.26562c0-.31934.25977-.5791.58008-.5791.31934,0,.5791.25977.5791.5791v5.14062c0,.41406.33594.75.75.75s.75-.33594.75-.75V2.69824c0-.32031.25977-.58008.5791-.58008s.5791.25977.5791.58008v6.9209c0,.41406.33594.75.75.75s.75-.33594.75-.75v-5.26562c0-.31934.25977-.5791.58008-.5791.53711,0,.5791.74121.5791.96777v7.21094c0,.30273.18262.57617.46191.69238.27832.11719.60156.05273.81738-.16113.64062-.6377,1.14648-1.15625,1.55469-1.5752.96875-.99316,1.37012-1.39551,1.57812-1.39648h.00098c.26758,0,.4541.18164.45508.44141.00098.47949-.33984.98828-2.02539,3.02539Z" fill="var(--iconPrimary, #222)"/>
</svg>