<?xml version="1.0" encoding="UTF-8"?>
<svg   xmlns="http://www.w3.org/2000/svg" width="20" height="20" viewBox="0 0 20 20">
  <path d="M15.51251,4.64327s.48749.66855.48749,1.10673v4.86263c0,2.76108-1.04227,3.97503-3.19959,5.69827l-2.29218,1.04268c-.399.46403-1.11747.46403-1.51647,0l-2.17213-.82677c-.80043-.63938-1.91716-1.81588-1.91716-1.81588L15.51251,4.64327Z" fill="var(--iconPrimary, #222)" opacity=".2"/>
  <path d="M9.75146,18.94043c-.09766,0-.1958-.01465-.29395-.0459-.01514-.00391-.03271-.00977-.05273-.01562-.12061-.03906-.3291-.10938-.59863-.21582-.01465-.00586-.02881-.0127-.04297-.01855-1.8667-.75391-6.51318-3.21777-6.51318-9.05078v-4.33984c0-.94824.6001-1.7998,1.49365-2.11816l5.49854-1.96387c.50781-.18359,1.06445-.17578,1.56885.02051l5.00049,1.93457c.86035.33301,1.43848,1.17578,1.43848,2.09766v4.36914c0,5.83008-4.64209,8.29395-6.51172,9.0498-.01416.00684-.0293.01367-.04443.01953-.26611.10547-.47314.17578-.59814.21484-.021.00684-.03955.0127-.05518.01758-.01123.00391-.02246.00684-.03369.00977-.08398.02344-.16943.03516-.25537.03516ZM9.55762,17.34473c.07324.02734.1377.0498.19238.06836.07861-.02637.17676-.06152.29199-.10547.03125-.0127.06396-.02539.09814-.03906.00391-.00098.00781-.00293.01172-.00391,1.56738-.62402,5.59814-2.70898,5.59814-7.6709v-4.36914c0-.30664-.19287-.58789-.47949-.69922l-5.00098-1.93457c-.16797-.06445-.35352-.06738-.52246-.00684l-5.49902,1.96387c-.29834.10645-.49805.38965-.49805.70605v4.33984c0,4.95801,4.02539,7.04395,5.59375,7.66895l.01611.00586c.07129.02832.13721.05371.19775.07617Z" fill="var(--iconPrimary, #222)"/>
</svg>