<?xml version="1.0" encoding="UTF-8"?>
<svg id="f" data-name="ICONS" xmlns="http://www.w3.org/2000/svg" width="20" height="20" viewBox="0 0 20 20">
  <path d="M18.99805,14v-1c0-1.37891-1.12109-2.5-2.5-2.5s-2.5,1.12109-2.5,2.5v1c-.55225,0-1,.44775-1,1v3c0,.55225.44775,1,1,1h5c.55225,0,1-.44775,1-1v-3c0-.55225-.44775-1-1-1ZM15.49805,13c0-.55176.44824-1,1-1s1,.44824,1,1v1h-2v-1Z" fill="var(--iconPrimary, #222)"/>
  <path d="M16,8.65039v-3.51172c0-.30664-.19238-.58789-.47949-.69922l-5.2627-1.89453c-.10303-.03809-.21216-.04321-.3208-.0332v14.82983c.01367.00488.03247.01221.04541.01685.19727-.08008.51172-.2168.89453-.41504.29907-.15479.64673-.07983.87109.14722v-2.09058c0-.77832.39746-1.46582,1-1.87012v-.12988c0-2.01538,1.60303-3.65234,3.59863-3.73376-.20386-.13416-.34668-.35364-.34668-.61584Z" fill="var(--iconPrimary, #222)" opacity=".2"/>
  <path d="M16.04492,3.03418l-5.2793-1.90137c-.49512-.17676-1.04004-.17578-1.5332.00391l-5.23926,1.91211c-.89258.31934-1.49316,1.1709-1.49316,2.11914v4.33984c0,6.92285,6.53418,9.13379,7.2793,9.36328.07227.02246.14648.0332.2207.0332.08203,0,.16406-.01367.24219-.04004.02246-.00781.55859-.19238,1.32422-.58887.36816-.19043.51172-.64258.32129-1.01074-.03564-.06885-.08789-.12158-.13965-.17407-.22437-.22705-.57202-.302-.87109-.14722-.38281.19824-.69727.33496-.89453.41504-.01294-.00464-.03174-.01196-.04541-.01685-1.3042-.46875-5.93701-2.5061-5.93701-7.83374v-4.33984c0-.31641.2002-.60059.50293-.70898l5.24316-1.91309c.06177-.02246.12646-.02832.19092-.03418.10864-.01001.21777-.00488.3208.0332l5.2627,1.89453c.28711.11133.47949.39258.47949.69922v3.51172c0,.26221.14282.48169.34668.61584.11816.07776.25146.13416.40332.13416.41406,0,.75-.33594.75-.75v-3.51172c0-.92188-.57812-1.76465-1.45508-2.10449Z" fill="var(--iconPrimary, #222)"/>
</svg>