<svg width="20" height="20" viewBox="0 0 20 20" fill="none" xmlns="http://www.w3.org/2000/svg">
<path d="M16.3408 5.28076L12.7197 1.6582C12.3008 1.23974 11.7207 1 11.1289 1H5.25C4.00977 1 3 2.00928 3 3.25V15.75C3 16.9907 4.00977 18 5.25 18H14.75C15.9902 18 17 16.9907 17 15.75V6.87109C17 6.2705 16.7656 5.70556 16.3408 5.28076ZM15.2803 6.34131C15.3258 6.38684 15.3538 6.44483 15.386 6.5H12.25C11.8369 6.5 11.5 6.16357 11.5 5.75V2.61353C11.5554 2.64563 11.6135 2.67383 11.6592 2.71924L15.2803 6.34131ZM14.75 16.5H5.25C4.83691 16.5 4.5 16.1636 4.5 15.75V3.25C4.5 2.83643 4.83691 2.5 5.25 2.5H10V5.75C10 6.99072 11.0098 8 12.25 8H15.5V15.75C15.5 16.1636 15.1631 16.5 14.75 16.5Z" fill="#292929"/>
<path d="M6.50848 10H8.49153C8.77235 10 9 10.2276 9 10.5085V13.1379C9 13.2465 8.96522 13.3522 8.90075 13.4397L7.90922 14.7841C7.70599 15.0597 7.29401 15.0597 7.09078 14.7841L6.09925 13.4397C6.03478 13.3522 6 13.2465 6 13.1379V10.5085C6 10.2276 6.22766 10 6.50848 10Z" fill="#292929"/>
<path d="M13.5606 12.5L14.2803 11.7803C14.5733 11.4873 14.5733 11.0127 14.2803 10.7197C13.9873 10.4268 13.5127 10.4268 13.2197 10.7197L12.5 11.4395L11.7803 10.7197C11.4873 10.4268 11.0127 10.4268 10.7197 10.7197C10.4268 11.0127 10.4268 11.4873 10.7197 11.7803L11.4395 12.5L10.7197 13.2197C10.4268 13.5127 10.4268 13.9873 10.7197 14.2803C10.8662 14.4268 11.0576 14.5 11.25 14.5C11.4424 14.5 11.6338 14.4268 11.7803 14.2803L12.5 13.5606L13.2197 14.2803C13.3662 14.4268 13.5576 14.5 13.75 14.5C13.9424 14.5 14.1338 14.4268 14.2803 14.2803C14.5732 13.9873 14.5732 13.5127 14.2803 13.2197L13.5606 12.5Z" fill="#292929"/>
</svg>
