<?xml version="1.0" encoding="UTF-8"?>
<svg id="b" data-name="ICONS" xmlns="http://www.w3.org/2000/svg" width="20" height="20" viewBox="0 0 20 20">
  <path d="M9.75,18c-.41406,0-.75-.33594-.75-.75v-6.25c0-.41406.33594-.75.75-.75s.75.33594.75.75v6.25c0,.41406-.33594.75-.75.75Z" fill="var(--iconPrimary, #222)"/>
  <path d="M12.75,18c-.41406,0-.75-.33594-.75-.75v-6.25c0-.41406.33594-.75.75-.75s.75.33594.75.75v6.25c0,.41406-.33594.75-.75.75Z" fill="var(--iconPrimary, #222)"/>
  <path d="M3.75,18c-.41406,0-.75-.33594-.75-.75v-5.5c0-.41406.33594-.75.75-.75s.75.33594.75.75v5.5c0,.41406-.33594.75-.75.75Z" fill="var(--iconPrimary, #222)"/>
  <path d="M6.75,18c-.41406,0-.75-.33594-.75-.75v-8c0-.41406.33594-.75.75-.75s.75.33594.75.75v8c0,.41406-.33594.75-.75.75Z" fill="var(--iconPrimary, #222)"/>
  <path d="M15.75,18c-.41406,0-.75-.33594-.75-.75v-9c0-.41406.33594-.75.75-.75s.75.33594.75.75v9c0,.41406-.33594.75-.75.75Z" fill="var(--iconPrimary, #222)"/>
  <path d="M17.25586,2.01953l-2.47461-.01953h-.00586c-.41113,0-.74707.33203-.75.74414-.00293.41406.33008.75293.74414.75586l.61157.00488-4.18384,3.78223-4.00781-2.89551c-.30664-.21973-.72656-.18164-.98535.09473l-4,4.25c-.28418.30176-.26953.77637.03223,1.05957.14453.13672.3291.2041.51367.2041.19922,0,.39844-.0791.5459-.23633l3.54883-3.77051,3.96582,2.86523c.28809.20703.68066.18555.94238-.05176l4.73315-4.27832-.00562.70996c-.00293.41406.33008.75293.74414.75586h.00586c.41113,0,.74707-.33203.75-.74414l.01953-2.47461c.00293-.41406-.33008-.75293-.74414-.75586Z" fill="var(--iconPrimary, #222)"/>
</svg>