<svg width="20" height="20" viewBox="0 0 20 20" fill="none" xmlns="http://www.w3.org/2000/svg">
<path d="M18 15.5H2.99999C2.58593 15.5 2.24999 15.1641 2.24999 14.75C2.24999 14.3359 2.58593 14 2.99999 14H18C18.414 14 18.75 14.3359 18.75 14.75C18.75 15.1641 18.414 15.5 18 15.5ZM11 3.25001C7.22338 3.25001 4.07366 6.06617 3.39129 9.77833L2.53271 8.33839C2.32128 7.98243 1.86035 7.8672 1.50439 8.07862C1.14892 8.29053 1.03222 8.75098 1.24462 9.10694L3.04003 12.1187C3.14355 12.2925 3.31347 12.417 3.51024 12.4639C3.56786 12.4775 3.62596 12.4844 3.68407 12.4844C3.82518 12.4844 3.96483 12.4443 4.08593 12.3677L7.00536 10.5151C7.35497 10.293 7.45848 9.82959 7.23681 9.47998C7.01464 9.12988 6.55077 9.02686 6.20165 9.24853L4.85778 10.1014C5.39226 7.06189 7.94048 4.75 11 4.75C14.4463 4.75 17.25 7.68115 17.25 11.2842C17.25 11.6982 17.5859 12.0342 18 12.0342C18.414 12.0342 18.75 11.6982 18.75 11.2842C18.75 6.854 15.2734 3.25001 11 3.25001Z" fill="#292929"/>
</svg>
