<svg width="20" height="20" viewBox="0 0 20 20" fill="none" xmlns="http://www.w3.org/2000/svg">
<path d="M10 19C8.9082 19 7.89453 18.458 7.28906 17.5498L7.2207 17.4482C7.10449 17.2744 6.89843 17.1973 6.70215 17.2314L6.57813 17.2568C5.50977 17.4668 4.40821 17.1367 3.63575 16.3642C2.86427 15.5918 2.53028 14.4922 2.74317 13.4219L2.76758 13.2988C2.8086 13.0976 2.72461 12.8945 2.55469 12.7812L2.44727 12.709C1.542 12.1054 1 11.0918 1 9.99998C1 8.90819 1.54199 7.89452 2.4502 7.28904L2.55176 7.22068C2.72461 7.10545 2.8086 6.90232 2.76856 6.70213L2.74317 6.57811C2.53028 5.5078 2.86426 4.40819 3.63575 3.63573C4.40821 2.86522 5.51075 2.53514 6.57813 2.74315L6.70118 2.76756C6.90235 2.8076 7.10548 2.72459 7.21876 2.55467L7.29103 2.44725C7.89455 1.54198 8.90822 0.999985 10 0.999985C11.0918 0.999985 12.1055 1.54197 12.7109 2.45018L12.7793 2.55174C12.8955 2.72557 13.0996 2.80076 13.2979 2.76854L13.4219 2.74315C14.4902 2.53417 15.5928 2.86327 16.3643 3.63573C17.1357 4.40819 17.4697 5.5078 17.2568 6.57811L17.2324 6.70116C17.1914 6.90233 17.2754 7.10546 17.4453 7.21874L17.5527 7.29101C18.458 7.89453 19 8.9082 19 9.99999C19 11.0908 18.459 12.1035 17.5527 12.709L17.4482 12.7793C17.2754 12.8945 17.1914 13.0976 17.2314 13.2978L17.2568 13.4219C17.4697 14.4922 17.1357 15.5918 16.3643 16.3642C15.5928 17.1367 14.4912 17.4678 13.4219 17.2568L13.2988 17.2324C13.0996 17.1924 12.8945 17.2754 12.7812 17.4453L12.709 17.5527C12.1055 18.458 11.0918 19 10 19ZM6.80469 15.7207C7.46485 15.7207 8.08985 16.0478 8.4668 16.6133L8.53516 16.7148C9.20313 17.7148 10.7988 17.7119 11.4629 16.7178L11.5352 16.6103C11.9854 15.9346 12.7969 15.5996 13.5928 15.7607L13.7149 15.7842C14.3027 15.9023 14.8799 15.7246 15.3027 15.3027C15.7256 14.8799 15.9014 14.3017 15.7842 13.7148L15.7598 13.5918C15.6006 12.793 15.9356 11.9844 16.6133 11.5332L16.7178 11.4629C17.2149 11.1309 17.5 10.5977 17.5 9.99999C17.5 9.40233 17.2149 8.86913 16.7178 8.53711L16.6104 8.46483C15.9356 8.01561 15.6006 7.20702 15.7608 6.40721L15.7842 6.28514C15.9014 5.69823 15.7256 5.1201 15.3027 4.69725C14.8799 4.2744 14.3018 4.09569 13.7149 4.2158L13.5918 4.24021C12.7891 4.39939 11.9854 4.06443 11.5332 3.38669L11.4649 3.28513C10.7969 2.28513 9.20119 2.28806 8.53713 3.2822L8.46486 3.38962C8.01564 4.0654 7.20607 4.40622 6.40724 4.23923L6.28517 4.21579C5.6963 4.0947 5.12013 4.27438 4.69728 4.69724C4.27443 5.1201 4.09865 5.69823 4.21583 6.28513L4.24024 6.40818C4.39942 7.20701 4.06446 8.0156 3.38672 8.46677L3.28516 8.53513C2.78516 8.86911 2.5 9.40233 2.5 9.99998C2.5 10.5976 2.78516 11.1308 3.28223 11.4629L3.38965 11.5351C4.06445 11.9844 4.39942 12.7929 4.23926 13.5928L4.21582 13.7148C4.09863 14.3017 4.27441 14.8799 4.69727 15.3027C5.12013 15.7256 5.69727 15.9033 6.28516 15.7842L6.40821 15.7598C6.54102 15.7334 6.67383 15.7207 6.80469 15.7207Z" fill="#292929"/>
<path d="M6.24999 14.375C6.08983 14.375 5.92968 14.3145 5.80761 14.1924C5.56445 13.9482 5.56445 13.5518 5.80761 13.3076L13.3076 5.80762C13.5518 5.56348 13.9482 5.56348 14.1924 5.80762C14.4355 6.05176 14.4355 6.44824 14.1924 6.69239L6.69238 14.1924C6.57031 14.3145 6.41014 14.375 6.24999 14.375Z" fill="#292929"/>
<path d="M7.4668 9.42479C6.38672 9.42479 5.50879 8.54686 5.50879 7.46678C5.50879 6.3867 6.38672 5.50877 7.4668 5.50877C8.54688 5.50877 9.42481 6.3867 9.42481 7.46678C9.42481 8.54686 8.54688 9.42479 7.4668 9.42479ZM7.4668 6.75878C7.07618 6.75878 6.75879 7.07616 6.75879 7.46679C6.75879 7.85742 7.07617 8.1748 7.4668 8.1748C7.85743 8.1748 8.17481 7.85742 8.17481 7.46679C8.17481 7.07616 7.85743 6.75878 7.4668 6.75878Z" fill="#292929"/>
<path d="M12.5332 14.4912C11.4531 14.4912 10.5752 13.6133 10.5752 12.5332C10.5752 11.4531 11.4531 10.5752 12.5332 10.5752C13.6133 10.5752 14.4912 11.4531 14.4912 12.5332C14.4912 13.6133 13.6133 14.4912 12.5332 14.4912ZM12.5332 11.8252C12.1426 11.8252 11.8252 12.1426 11.8252 12.5332C11.8252 12.9238 12.1426 13.2412 12.5332 13.2412C12.9238 13.2412 13.2412 12.9238 13.2412 12.5332C13.2412 12.1426 12.9238 11.8252 12.5332 11.8252Z" fill="#292929"/>
</svg>
