<svg width="20" height="20" viewBox="0 0 20 20" fill="none" xmlns="http://www.w3.org/2000/svg">
<path d="M18.78 17.72L13.447 12.387L13.444 12.385C13.581 12.215 13.718 12.045 13.84 11.861C14.069 11.515 13.974 11.05 13.629 10.822C13.284 10.593 12.819 10.687 12.589 11.033C11.566 12.578 9.85 13.501 8 13.501C4.967 13.501 2.5 11.033 2.5 8.00101C2.5 4.96901 4.967 2.50101 8 2.50101C8.149 2.50101 8.297 2.50701 8.443 2.51901C8.861 2.55201 9.218 2.24601 9.252 1.83301C9.286 1.42001 8.979 1.05801 8.566 1.02401C8.379 1.00801 8.191 1.00101 8 1.00101C4.14 1.00101 1 4.14201 1 8.00101C1 11.86 4.14 15.001 8 15.001C9.623 15.001 11.156 14.433 12.384 13.444C12.384 13.444 12.386 13.447 12.387 13.449L17.72 18.782C17.866 18.928 18.058 19.002 18.25 19.002C18.442 19.002 18.634 18.929 18.78 18.782C19.073 18.489 19.073 18.014 18.78 17.721V17.72Z" fill="#292929"/>
<path d="M12.94 9.583C12.746 9.583 12.55 9.532 12.372 9.43C11.944 9.183 11.726 8.693 11.83 8.209L12.343 5.834L10.712 4.034C10.38 3.668 10.323 3.134 10.57 2.705C10.818 2.277 11.307 2.059 11.792 2.164L14.166 2.678L15.965 1.046C16.332 0.713998 16.866 0.655998 17.295 0.903998C17.723 1.151 17.941 1.642 17.836 2.126L17.323 4.5L18.954 6.3C19.286 6.666 19.344 7.199 19.096 7.628C18.849 8.057 18.36 8.274 17.874 8.17L15.5 7.656L13.701 9.288C13.486 9.482 13.214 9.583 12.94 9.583ZM13.849 5.967L13.537 7.412L14.632 6.419C14.904 6.174 15.276 6.072 15.634 6.151L17.077 6.463L16.085 5.368C15.84 5.097 15.74 4.724 15.816 4.368L16.128 2.923L15.033 3.915C14.762 4.16 14.389 4.263 14.03 4.183L12.587 3.871L13.579 4.966C13.824 5.236 13.925 5.611 13.847 5.967H13.849Z" fill="#292929"/>
<path d="M7.39899 11.812C7.26999 11.812 7.14099 11.779 7.02399 11.711C6.74199 11.548 6.59799 11.222 6.66699 10.903L6.86999 9.964L6.22399 9.253C6.00499 9.012 5.96699 8.656 6.12999 8.374C6.29299 8.092 6.61999 7.952 6.93799 8.016L7.87699 8.219L8.58899 7.573C8.83099 7.353 9.18599 7.316 9.46799 7.479C9.74999 7.642 9.89499 7.968 9.82599 8.287L9.62299 9.226L10.269 9.938C10.488 10.18 10.526 10.535 10.363 10.817C10.201 11.099 9.87699 11.243 9.55499 11.175L8.61599 10.972L7.90399 11.617C7.76199 11.745 7.58199 11.811 7.40099 11.811L7.39899 11.812Z" fill="#292929"/>
</svg>
