<svg width="20" height="20" viewBox="0 0 20 20" fill="none" xmlns="http://www.w3.org/2000/svg">
<path d="M17.1803 4.80859C16.7516 4.29492 16.1222 4 15.4528 4H5.08661L4.94592 3.13867C4.7677 2.04394 3.83362 1.25 2.72522 1.25H1.00061C0.58655 1.25 0.25061 1.58594 0.25061 2C0.25061 2.41406 0.58655 2.75 1.00061 2.75H2.72522C3.09485 2.75 3.40588 3.01465 3.46545 3.37988L5.05481 13.1113C5.23303 14.2061 6.16711 15 7.27551 15H16.0001C16.4142 15 16.7501 14.6641 16.7501 14.25C16.7501 13.8359 16.4142 13.5 16.0001 13.5H7.27551C6.90588 13.5 6.59485 13.2353 6.53528 12.8701L6.22986 11H14.9982C16.0861 11 17.0172 10.2236 17.212 9.15234L17.6666 6.65234C17.7863 5.99414 17.609 5.32226 17.1803 4.80859ZM16.191 6.38476L15.7365 8.88378C15.6715 9.2412 15.361 9.49999 14.9982 9.49999H5.98486L5.3316 5.49999H15.4528C15.7584 5.49999 15.9449 5.66894 16.0289 5.76952C16.1129 5.8701 16.2457 6.08398 16.191 6.38476ZM15.0002 19.2501C14.3099 19.2501 13.7502 18.6904 13.7502 18.0001C13.7502 17.3097 14.3099 16.7501 15.0002 16.7501C15.6906 16.7501 16.2502 17.3097 16.2502 18.0001C16.2502 18.6904 15.6906 19.2501 15.0002 19.2501ZM7.0013 19.2501C6.31094 19.2501 5.7513 18.6904 5.7513 18.0001C5.7513 17.3097 6.31094 16.7501 7.0013 16.7501C7.69166 16.7501 8.2513 17.3097 8.2513 18.0001C8.2513 18.6904 7.69166 19.2501 7.0013 19.2501Z" fill="#292929"/>
</svg>
