<svg width="20" height="20" viewBox="0 0 20 20" fill="none" xmlns="http://www.w3.org/2000/svg">
<path d="M11.8643 18.8042C11.3125 18.8042 10.7607 18.5967 10.3408 18.1821L2.70801 10.7153C2.25781 10.2754 2 9.66212 2 9.03272V4.35352C2 3.05567 3.05566 2 4.35352 2H9.13282C9.76075 2 10.3506 2.24414 10.7949 2.68701L18.3662 10.2353C18.7744 10.6377 19 11.1768 19 11.7505C19 12.3242 18.7744 12.8633 18.3633 13.2681L13.3877 18.1821C12.9678 18.5967 12.416 18.8042 11.8643 18.8042ZM4.35352 3.50001C3.88282 3.50001 3.5 3.88282 3.5 4.35353V9.03273C3.5 9.26076 3.59375 9.48341 3.75684 9.64308L11.3926 17.1123C11.6543 17.3706 12.0752 17.3701 12.333 17.1148L17.3096 12.2007C17.4326 12.0796 17.5 11.9199 17.5 11.7505C17.5 11.5811 17.4326 11.4214 17.3105 11.3003L9.73535 3.74903C9.57617 3.59083 9.35742 3.50001 9.13281 3.50001H4.35352Z" fill="#292929"/>
<path d="M6 7C6.55228 7 7 6.55228 7 6C7 5.44772 6.55228 5 6 5C5.44772 5 5 5.44772 5 6C5 6.55228 5.44772 7 6 7Z" fill="#292929"/>
</svg>
