<svg width="20" height="20" viewBox="0 0 20 20" fill="none" xmlns="http://www.w3.org/2000/svg">
<path d="M14.75 18H5.25C4.00977 18 3 16.9902 3 15.75V3.25C3 2.00977 4.00977 1 5.25 1H14.75C15.9902 1 17 2.00977 17 3.25V15.75C17 16.9902 15.9902 18 14.75 18ZM5.25 2.5C4.83691 2.5 4.5 2.83691 4.5 3.25V15.75C4.5 16.1631 4.83691 16.5 5.25 16.5H14.75C15.1631 16.5 15.5 16.1631 15.5 15.75V3.25C15.5 2.83691 15.1631 2.5 14.75 2.5H5.25Z" fill="#292929"/>
<path d="M9.60472 15.5614C9.43577 15.5614 9.26292 15.5263 9.09495 15.454C8.51585 15.203 8.2219 14.6015 8.38206 13.9911L9.03538 11.4784H6.89964C6.44749 11.4784 6.02952 11.2333 5.80882 10.8388C5.58812 10.4442 5.59691 9.95986 5.83323 9.5751L9.37327 3.80069C9.70335 3.26163 10.3401 3.0546 10.925 3.30167C11.5071 3.54679 11.8059 4.14542 11.6516 4.75772L10.968 7.47842H13.1008C13.5559 7.47842 13.9748 7.72549 14.1955 8.12393C14.4153 8.52139 14.4016 9.00772 14.1604 9.39248L10.6487 14.9726C10.4104 15.3515 10.0188 15.5614 9.60472 15.5614ZM7.34495 9.97842H9.3596C9.75022 9.97842 10.1106 10.1552 10.3489 10.4647C10.5871 10.7733 10.6672 11.1669 10.5686 11.5438L10.2405 12.8046L12.6487 8.97842H10.6477C10.26 8.97842 9.90062 8.80264 9.66234 8.49697C9.42308 8.19131 9.34105 7.7997 9.4348 7.42373L9.79808 5.97744L7.34495 9.97842Z" fill="#292929"/>
</svg>
